<?xml version="1.0" encoding="UTF-8"?>
<svg width="800" height="600" viewBox="0 0 800 600" fill="none" xmlns="http://www.w3.org/2000/svg">
  <rect width="800" height="600" fill="#F3F4F6"/>
  <path d="M350 250C333.431 250 320 263.431 320 280C320 296.569 333.431 310 350 310C366.569 310 380 296.569 380 280C380 263.431 366.569 250 350 250ZM310 280C310 257.909 327.909 240 350 240C372.091 240 390 257.909 390 280C390 302.091 372.091 320 350 320C327.909 320 310 302.091 310 280Z" fill="#9CA3AF"/>
  <path d="M280 380L380 320L480 420" stroke="#9CA3AF" stroke-width="10" stroke-linecap="round"/>
</svg> 